<?xml version="1.0" encoding="iso-8859-1"?>
<!-- Generator: Adobe Illustrator 19.0.0, SVG Export Plug-In . SVG Version: 6.00 Build 0) -->
<svg version="1.1" id="Layer_1" xmlns="http://www.w3.org/2000/svg" xmlns:xlink="http://www.w3.org/1999/xlink" x="0px" y="0px" viewBox="0 0 495 495" style="enable-background:new 0 0 495 495;" xml:space="preserve">
	<g>
		<path style="fill:#46F8FF;" d="M418.53,238.627c-20.109,0-36.47,16.36-36.47,36.469v29.688l16.47,15.017v-44.705H435v-32.523
		C430.049,240.056,424.455,238.627,418.53,238.627z" />
		<path style="fill:#46F8FF;" d="M256.38,190.189l85.977,78.394c3.318-39.125,36.203-69.956,76.173-69.956
		c5.655,0,11.161,0.635,16.47,1.806V27.514L256.2,190.189H256.38z" />
		<polygon style="fill:#9BFBFF;" points="435,27.514 0,27.514 217.5,225.284 	" />
		<path style="fill:#00E7F0;" d="M342.061,353.054v-77.958c0-2.196,0.115-4.364,0.297-6.513l-85.977-78.394h-0.18l-38.7,35.095
		l-38.79-35.095L0,353.054h285.592h40H342.061z" />
		<polygon style="fill:#00E7F0;" points="382.061,353.054 398.53,353.054 398.53,319.801 382.061,304.784 	" />
		<polygon style="fill:#46F8FF;" points="0,27.514 0,353.054 178.71,190.189 	" />
		<path style="fill:#2488FF;" d="M435,200.433c-5.308-1.17-10.815-1.806-16.47-1.806c-39.97,0-72.854,30.831-76.173,69.956
		c-0.182,2.149-0.297,4.318-0.297,6.513v77.958v9.729c0,26.597,21.639,48.234,48.235,48.234s48.234-21.638,48.234-48.234v-87.687
		H435h-36.47v44.705v33.253v9.729c0,4.541-3.694,8.234-8.234,8.234c-4.541,0-8.235-3.694-8.235-8.234v-9.729v-48.27v-29.688
		c0-20.109,16.36-36.469,36.47-36.469c5.925,0,11.519,1.429,16.47,3.947c11.854,6.028,20,18.338,20,32.523v87.686
		c0,35.678-29.026,64.704-64.704,64.704s-64.704-29.026-64.704-64.704v-9.728h-40v9.728c0,57.734,46.97,104.704,104.704,104.704
		S495,420.516,495,362.782v-87.686C495,238.586,469.273,207.988,435,200.433z" />
	</g>
	<g>
	</g>
	<g>
	</g>
	<g>
	</g>
	<g>
	</g>
	<g>
	</g>
	<g>
	</g>
	<g>
	</g>
	<g>
	</g>
	<g>
	</g>
	<g>
	</g>
	<g>
	</g>
	<g>
	</g>
	<g>
	</g>
	<g>
	</g>
	<g>
	</g>
</svg>
